<?xml version="1.0" encoding="UTF-8"?>
<svg xmlns="http://www.w3.org/2000/svg" xmlns:xlink="http://www.w3.org/1999/xlink" viewBox="0 0 256 256" width="256px" height="256px">
<g id="surface101947390">
<path fill='rgb(90.588236%,29.803923%,23.529412%)' style="stroke:none;fill-rule:nonzero;fill-opacity:1;" d="M 128 12 C 97 12 67.800781 24 46 46 C 24 67.800781 12 97 12 128 C 12 159 24 188.199219 46 210 C 68 232 97 244 128 244 C 159 244 188.199219 232 210 210 C 232 188 244 159 244 128 C 244 97 232 67.800781 210 46 C 188.199219 24 159 12 128 12 Z M 128 24 C 155.800781 24 181.800781 34.796875 201.601562 54.398438 C 221.402344 74 232 100.199219 232 128 C 232 155.800781 221.203125 181.800781 201.601562 201.601562 C 181.800781 221.203125 155.800781 232 128 232 C 100.199219 232 74.199219 221.203125 54.398438 201.601562 C 34.597656 182 24 155.800781 24 128 C 24 100.199219 34.796875 74.199219 54.398438 54.398438 C 74 34.597656 100.199219 24 128 24 Z M 101.125 95 C 99.601562 95 98.101562 95.601562 97 96.800781 C 94.601562 99.199219 94.601562 103 97 105.199219 L 119.601562 128 L 96.800781 150.601562 C 94.402344 153 94.402344 156.800781 96.800781 159 C 98 160.199219 99.601562 160.800781 101 160.800781 C 102.398438 160.800781 104 160.199219 105.199219 159 L 128 136.398438 L 150.601562 159 C 151.800781 160.199219 153.402344 160.800781 154.800781 160.800781 C 156.199219 160.800781 157.800781 160.199219 159 159 C 161.398438 156.601562 161.398438 152.800781 159 150.601562 L 136.398438 128 L 159 105.398438 C 161.398438 103 161.398438 99.199219 159.199219 96.800781 C 156.800781 94.402344 153 94.402344 150.800781 96.800781 L 128 119.601562 L 105.398438 96.800781 C 104.199219 95.601562 102.648438 95 101.125 95 Z M 101.125 95 "/>
</g>
</svg>
